<svg width="16" height="17" viewBox="0 0 16 17" fill="none" xmlns="http://www.w3.org/2000/svg">
<path d="M7.99992 1.83301C4.32659 1.83301 1.33325 4.82634 1.33325 8.49967C1.33325 12.173 4.32659 15.1663 7.99992 15.1663C11.6733 15.1663 14.6666 12.173 14.6666 8.49967C14.6666 4.82634 11.6733 1.83301 7.99992 1.83301ZM10.8999 10.8797C10.8066 11.0397 10.6399 11.1263 10.4666 11.1263C10.3799 11.1263 10.2933 11.1063 10.2133 11.053L8.14659 9.81967C7.63325 9.51301 7.25325 8.83967 7.25325 8.24634V5.51301C7.25325 5.23967 7.47992 5.01301 7.75325 5.01301C8.02659 5.01301 8.25325 5.23967 8.25325 5.51301V8.24634C8.25325 8.48634 8.45325 8.83967 8.65992 8.95967L10.7266 10.193C10.9666 10.333 11.0466 10.6397 10.8999 10.8797Z" fill="url(#paint0_linear_117_3884)"/>
<defs>
<linearGradient id="paint0_linear_117_3884" x1="3.56186" y1="1.83301" x2="6.2854" y2="12.6948" gradientUnits="userSpaceOnUse">
<stop stop-color="#1DA1F2"/>
<stop offset="1" stop-color="#003CC5"/>
</linearGradient>
</defs>
</svg>
