<svg width="16" height="16" viewBox="0 0 16 16" fill="none" xmlns="http://www.w3.org/2000/svg">
<path d="M5.66659 12.6663H5.33325C2.66659 12.6663 1.33325 11.9997 1.33325 8.66634V5.33301C1.33325 2.66634 2.66659 1.33301 5.33325 1.33301H10.6666C13.3333 1.33301 14.6666 2.66634 14.6666 5.33301V8.66634C14.6666 11.333 13.3333 12.6663 10.6666 12.6663H10.3333C10.1266 12.6663 9.92659 12.7663 9.79992 12.933L8.79992 14.2663C8.35992 14.853 7.63992 14.853 7.19992 14.2663L6.19992 12.933C6.09325 12.7863 5.84659 12.6663 5.66659 12.6663Z" stroke="#7F92A0" stroke-miterlimit="10" stroke-linecap="round" stroke-linejoin="round"/>
<path d="M10.6644 7.33333H10.6704" stroke="#7F92A0" stroke-width="1.33333" stroke-linecap="round" stroke-linejoin="round"/>
<path d="M7.99691 7.33333H8.0029" stroke="#7F92A0" stroke-width="1.33333" stroke-linecap="round" stroke-linejoin="round"/>
<path d="M5.32967 7.33333H5.33566" stroke="#7F92A0" stroke-width="1.33333" stroke-linecap="round" stroke-linejoin="round"/>
</svg>
