<svg width="25" height="24" viewBox="0 0 25 24" fill="none" xmlns="http://www.w3.org/2000/svg">
<path fill-rule="evenodd" clip-rule="evenodd" d="M14.4473 12.1362L14.0194 12.652L17.9875 15.945C17.7816 16.76 17.0317 17.2057 16.3266 16.6207L12.1977 13.1955L11.7706 13.7087L15.7625 17.0224C15.5699 17.8449 14.8063 18.3059 14.0982 17.7181L9.96985 14.2934L9.54219 14.8064L13.7361 18.2879C13.5451 19.1031 12.7824 19.6056 12.0777 18.9926L1.2666 9.59789L4.57209 4.8888L6.16156 5.60317L10.9257 5.42465L11.554 6.10738L9.36847 8.45134C8.03915 9.87669 9.43372 10.6888 10.889 10.347C11.8432 10.1233 12.6723 9.60919 13.429 9.00329C15.5201 10.5809 17.6353 12.1235 19.7103 13.7225C21.0046 14.7202 19.6844 16.4817 18.5771 15.5629L14.4473 12.1362ZM13.3971 8.14542C12.5906 8.84821 11.7206 9.50637 10.6467 9.7202C9.98652 9.85183 9.03769 9.78517 9.85686 8.9064L13.0522 5.47916L18.8013 5.51504L20.1761 4.65039L23.6491 9.33293L19.8369 12.9813L13.3971 8.14542Z" fill="#FD9644"/>
</svg>
