<svg width="32" height="32" viewBox="0 0 32 32" fill="none" xmlns="http://www.w3.org/2000/svg">
<path d="M20.0001 30.3337H12.0001C4.76008 30.3337 1.66675 27.2403 1.66675 20.0003V12.0003C1.66675 4.76033 4.76008 1.66699 12.0001 1.66699H20.0001C27.2401 1.66699 30.3334 4.76033 30.3334 12.0003V20.0003C30.3334 27.2403 27.2401 30.3337 20.0001 30.3337ZM12.0001 3.66699C5.85341 3.66699 3.66675 5.85366 3.66675 12.0003V20.0003C3.66675 26.147 5.85341 28.3337 12.0001 28.3337H20.0001C26.1467 28.3337 28.3334 26.147 28.3334 20.0003V12.0003C28.3334 5.85366 26.1467 3.66699 20.0001 3.66699H12.0001Z" fill="url(#paint0_linear_117_4002)"/>
<path d="M11.9999 14.3333C9.97325 14.3333 8.33325 12.6933 8.33325 10.6667C8.33325 8.64 9.97325 7 11.9999 7C14.0266 7 15.6666 8.64 15.6666 10.6667C15.6666 12.6933 14.0266 14.3333 11.9999 14.3333ZM11.9999 9C11.0799 9 10.3333 9.74667 10.3333 10.6667C10.3333 11.5867 11.0799 12.3333 11.9999 12.3333C12.9199 12.3333 13.6666 11.5867 13.6666 10.6667C13.6666 9.74667 12.9199 9 11.9999 9Z" fill="url(#paint1_linear_117_4002)"/>
<path d="M3.5601 26.2671C3.2401 26.2671 2.9201 26.1071 2.73344 25.8271C2.42677 25.3737 2.54677 24.7471 3.01344 24.4404L9.58677 20.0271C11.0268 19.0537 13.0134 19.1737 14.3201 20.2804L14.7601 20.6671C15.4268 21.2404 16.5601 21.2404 17.2134 20.6671L22.7601 15.9071C24.1734 14.6937 26.4001 14.6937 27.8268 15.9071L30.0001 17.7737C30.4134 18.1337 30.4668 18.7604 30.1068 19.1871C29.7468 19.6004 29.1201 19.6537 28.6934 19.2937L26.5201 17.4271C25.8534 16.8537 24.7201 16.8537 24.0534 17.4271L18.5068 22.1871C17.0934 23.4004 14.8668 23.4004 13.4401 22.1871L13.0001 21.8004C12.3868 21.2804 11.3734 21.2271 10.6934 21.6937L4.1201 26.1071C3.94677 26.2137 3.74677 26.2671 3.5601 26.2671Z" fill="url(#paint2_linear_117_4002)"/>
<defs>
<linearGradient id="paint0_linear_117_4002" x1="16.0001" y1="1.66699" x2="16.0001" y2="30.3337" gradientUnits="userSpaceOnUse">
<stop stop-color="#1DA1F2"/>
<stop offset="1" stop-color="#003CC5"/>
</linearGradient>
<linearGradient id="paint1_linear_117_4002" x1="11.9999" y1="7" x2="11.9999" y2="14.3333" gradientUnits="userSpaceOnUse">
<stop stop-color="#1DA1F2"/>
<stop offset="1" stop-color="#003CC5"/>
</linearGradient>
<linearGradient id="paint2_linear_117_4002" x1="16.4554" y1="14.9971" x2="16.4554" y2="26.2671" gradientUnits="userSpaceOnUse">
<stop stop-color="#1DA1F2"/>
<stop offset="1" stop-color="#003CC5"/>
</linearGradient>
</defs>
</svg>
