<svg width="12" height="12" viewBox="0 0 12 12" fill="none" xmlns="http://www.w3.org/2000/svg">
<path d="M5.59964 2.96433L6 3.49946L6.40036 2.96433C6.81542 2.40954 7.4799 2.0498 8.22 2.0498C9.47652 2.0498 10.5 3.07361 10.5 4.3448C10.5 4.88542 10.4139 5.38355 10.2643 5.84589L10.2632 5.84915C9.90404 6.98585 9.16476 7.91069 8.35473 8.60686C7.5425 9.30491 6.6879 9.74807 6.14894 9.93145L6.14893 9.93142L6.14359 9.93331C6.12875 9.93855 6.07675 9.9498 6 9.9498C5.92325 9.9498 5.87125 9.93855 5.85641 9.93331L5.85642 9.93328L5.85106 9.93145C5.3121 9.74807 4.4575 9.30491 3.64527 8.60686C2.83524 7.91069 2.09596 6.98585 1.73676 5.84915L1.73677 5.84914L1.73572 5.84589C1.58614 5.38355 1.5 4.88542 1.5 4.3448C1.5 3.07361 2.52348 2.0498 3.78 2.0498C4.5201 2.0498 5.18458 2.40954 5.59964 2.96433Z" fill="#FF5A5F" stroke="#FF5A5F"/>
</svg>
