<svg width="65" height="24" viewBox="0 0 65 24" fill="none" xmlns="http://www.w3.org/2000/svg">
<path fill-rule="evenodd" clip-rule="evenodd" d="M20.9393 12.6297C20.9393 10.0294 20.1385 7.62854 18.8157 5.59003C16.5841 2.21065 12.7418 0 8.37753 0C7.3967 0 6.48786 0.10872 5.58802 0.317101C3.45539 0.770102 1.56572 1.79388 0 3.19819V18.2741C2.47456 18.2741 4.59819 16.6433 5.31806 14.3692C5.26407 14.2605 5.19209 14.1608 5.0931 14.0793L2.33059 11.6602C1.7097 11.1166 2.04264 10.1019 2.8705 10.0294L6.53285 9.68516C6.88379 9.64892 7.18074 9.44054 7.31571 9.12344L8.78245 5.77123C9.1064 5.01019 10.1862 5.01019 10.5191 5.77123L11.9769 9.12344C12.1209 9.44054 12.4178 9.64892 12.7598 9.68516L16.4311 10.0294C17.259 10.1019 17.5919 11.1166 16.971 11.6602L14.1995 14.0793C13.9385 14.3058 13.8306 14.6501 13.9026 14.9853L14.7124 18.5549C14.8924 19.3522 14.0195 19.9864 13.2997 19.5696L10.1322 17.7033C9.83527 17.5311 9.1154 17.4677 8.75546 17.5674L8.09858 17.7667L7.36071 18.0113L6.58684 18.3284C4.27425 19.2616 0.980828 21.8165 0.215962 24H13.9925C15.9452 23.0125 17.6099 21.5176 18.8157 19.6784C20.1745 17.6761 20.9393 15.2843 20.9393 12.6659C20.9393 12.6659 20.9393 12.6659 20.9393 12.6297Z" fill="url(#paint0_linear_117_3896)"/>
<path fill-rule="evenodd" clip-rule="evenodd" d="M34.6607 11.8926C34.6607 12.7849 34.5493 13.5482 34.3267 14.1823C34.104 14.8165 33.7844 15.3341 33.3678 15.7351C32.9512 16.1362 32.4449 16.4307 31.8487 16.6187C31.2526 16.8066 30.5427 16.9006 29.7191 16.9006H27.4997C27.3417 16.9006 27.2088 16.8518 27.1011 16.754C26.9933 16.6563 26.9395 16.4971 26.9395 16.2765V7.79441C26.9395 7.57384 26.9933 7.41468 27.1011 7.31692C27.2088 7.21916 27.3417 7.17029 27.4997 7.17029H29.8843C30.7127 7.17029 31.4154 7.2718 31.9924 7.47483C32.5694 7.67786 33.0554 7.97864 33.4504 8.37718C33.8455 8.77572 34.1459 9.26825 34.3518 9.85478C34.5577 10.4413 34.6607 11.1206 34.6607 11.8926ZM32.7071 11.9601C32.7071 11.4989 32.6556 11.0702 32.5526 10.6742C32.4497 10.2782 32.2845 9.93479 32.057 9.64403C31.8296 9.35327 31.5375 9.12643 31.1808 8.9635C30.824 8.80058 30.356 8.71912 29.7766 8.71912H28.8213V15.3364H29.8053C30.3225 15.3364 30.7582 15.2662 31.1125 15.1258C31.4669 14.9854 31.7626 14.7736 31.9996 14.4904C32.2366 14.2072 32.4138 13.855 32.5311 13.4339C32.6484 13.0128 32.7071 12.5215 32.7071 11.9601ZM45.9945 16.3967C45.9658 16.517 45.9263 16.6135 45.876 16.6862C45.8257 16.7589 45.7503 16.814 45.6498 16.8516C45.5492 16.8892 45.4199 16.9143 45.2619 16.9268C45.1039 16.9393 44.9028 16.9456 44.6586 16.9456C44.3856 16.9456 44.1666 16.9393 44.0014 16.9268C43.8362 16.9143 43.7057 16.8892 43.6099 16.8516C43.5142 16.814 43.4447 16.7589 43.4016 16.6862C43.3585 16.6135 43.325 16.517 43.3011 16.3967L41.8143 10.2306H41.7999L40.3921 16.3967C40.3682 16.512 40.3347 16.606 40.2916 16.6786C40.2485 16.7513 40.1803 16.8077 40.0869 16.8478C39.9935 16.8879 39.8666 16.9143 39.7062 16.9268C39.5458 16.9393 39.3339 16.9456 39.0706 16.9456C38.7928 16.9456 38.5714 16.9393 38.4062 16.9268C38.241 16.9143 38.1105 16.8892 38.0147 16.8516C37.919 16.814 37.8495 16.7589 37.8064 16.6862C37.7633 16.6135 37.7274 16.517 37.6987 16.3967L35.587 7.90704C35.5439 7.72657 35.52 7.58495 35.5152 7.48218C35.5104 7.37941 35.538 7.30046 35.5978 7.24531C35.6577 7.19017 35.7558 7.15633 35.8923 7.1438C36.0288 7.13127 36.2191 7.125 36.4633 7.125C36.6884 7.125 36.8667 7.12876 36.9984 7.13628C37.1301 7.1438 37.2294 7.16134 37.2965 7.18892C37.3635 7.21649 37.409 7.25659 37.4329 7.30923C37.4569 7.36187 37.476 7.43581 37.4904 7.53106L39.1208 14.983H39.128L40.8231 7.5837C40.8423 7.48845 40.8674 7.41074 40.8985 7.35059C40.9296 7.29043 40.9823 7.24406 41.0565 7.21148C41.1308 7.17889 41.2325 7.15633 41.3618 7.1438C41.4911 7.13127 41.6635 7.125 41.8789 7.125C42.1088 7.125 42.2919 7.13001 42.4284 7.14004C42.5649 7.15007 42.6702 7.17137 42.7444 7.20396C42.8186 7.23654 42.8725 7.28291 42.906 7.34307C42.9396 7.40323 42.9659 7.48343 42.985 7.5837L44.7376 14.983H44.7519L46.3824 7.55362C46.3967 7.47341 46.4159 7.40448 46.4398 7.34683C46.4638 7.28918 46.5093 7.24406 46.5763 7.21148C46.6433 7.17889 46.7391 7.15633 46.8636 7.1438C46.9881 7.13127 47.1629 7.125 47.3879 7.125C47.5986 7.125 47.7626 7.13127 47.8799 7.1438C47.9973 7.15633 48.0822 7.19017 48.1349 7.24531C48.1876 7.30046 48.2103 7.38192 48.2032 7.4897C48.196 7.59748 48.1708 7.74411 48.1277 7.9296L45.9945 16.3967ZM55.052 16.1261C55.052 16.2715 55.046 16.3931 55.034 16.4908C55.0221 16.5886 55.0041 16.6675 54.9802 16.7277C54.9562 16.7878 54.9263 16.8317 54.8904 16.8593C54.8545 16.8869 54.815 16.9006 54.7719 16.9006H50.1032C49.9452 16.9006 49.8123 16.8518 49.7046 16.754C49.5969 16.6563 49.543 16.4971 49.543 16.2765V7.79441C49.543 7.57384 49.5969 7.41468 49.7046 7.31692C49.8123 7.21916 49.9452 7.17029 50.1032 7.17029H54.7432C54.7863 7.17029 54.8246 7.18282 54.8581 7.20789C54.8916 7.23295 54.9203 7.27682 54.9443 7.33948C54.9682 7.40214 54.9862 7.48235 54.9981 7.58011C55.0101 7.67786 55.0161 7.80193 55.0161 7.95233C55.0161 8.09269 55.0101 8.21175 54.9981 8.30951C54.9862 8.40726 54.9682 8.48622 54.9443 8.54637C54.9203 8.60653 54.8916 8.65039 54.8581 8.67797C54.8246 8.70554 54.7863 8.71932 54.7432 8.71932H51.4248V11.0955H54.2332C54.2763 11.0955 54.3158 11.1093 54.3517 11.1369C54.3876 11.1644 54.4175 11.2071 54.4415 11.2647C54.4654 11.3224 54.4834 11.4001 54.4954 11.4978C54.5073 11.5956 54.5133 11.7146 54.5133 11.855C54.5133 12.0004 54.5073 12.1207 54.4954 12.2159C54.4834 12.3112 54.4654 12.3876 54.4415 12.4453C54.4175 12.5029 54.3876 12.5443 54.3517 12.5694C54.3158 12.5944 54.2763 12.607 54.2332 12.607H51.4248V15.3516H54.7719C54.815 15.3516 54.8545 15.3654 54.8904 15.393C54.9263 15.4205 54.9562 15.4644 54.9802 15.5246C55.0041 15.5847 55.0221 15.6637 55.034 15.7614C55.046 15.8592 55.052 15.9807 55.052 16.1261ZM64.4395 11.8926C64.4395 12.7849 64.3282 13.5482 64.1055 14.1823C63.8829 14.8165 63.5632 15.3341 63.1467 15.7351C62.7301 16.1362 62.2237 16.4307 61.6276 16.6187C61.0314 16.8066 60.3215 16.9006 59.4979 16.9006H57.2785C57.1205 16.9006 56.9876 16.8518 56.8799 16.754C56.7722 16.6563 56.7183 16.4971 56.7183 16.2765V7.79441C56.7183 7.57384 56.7722 7.41468 56.8799 7.31692C56.9876 7.21916 57.1205 7.17029 57.2785 7.17029H59.6631C60.4915 7.17029 61.1942 7.2718 61.7712 7.47483C62.3482 7.67786 62.8342 7.97864 63.2293 8.37718C63.6243 8.77572 63.9248 9.26825 64.1307 9.85478C64.3366 10.4413 64.4395 11.1206 64.4395 11.8926ZM62.4858 11.9601C62.4858 11.4989 62.4343 11.0702 62.3314 10.6742C62.2284 10.2782 62.0632 9.93479 61.8358 9.64403C61.6083 9.35327 61.3162 9.12643 60.9595 8.9635C60.6028 8.80058 60.1347 8.71912 59.5553 8.71912H58.6V15.3364H59.584C60.1012 15.3364 60.5369 15.2662 60.8913 15.1258C61.2456 14.9854 61.5413 14.7736 61.7783 14.4904C62.0153 14.2072 62.1925 13.855 62.3098 13.4339C62.4271 13.0128 62.4858 12.5215 62.4858 11.9601Z" fill="url(#paint1_linear_117_3896)"/>
<defs>
<linearGradient id="paint0_linear_117_3896" x1="3.49992" y1="-6.34042e-08" x2="9.0165" y2="19.195" gradientUnits="userSpaceOnUse">
<stop stop-color="#1DA1F2"/>
<stop offset="1" stop-color="#003CC5"/>
</linearGradient>
<linearGradient id="paint1_linear_117_3896" x1="33.2074" y1="7.125" x2="33.7634" y2="15.5917" gradientUnits="userSpaceOnUse">
<stop stop-color="#1DA1F2"/>
<stop offset="1" stop-color="#003CC5"/>
</linearGradient>
</defs>
</svg>
