<svg width="16" height="16" viewBox="0 0 16 16" fill="none" xmlns="http://www.w3.org/2000/svg">
<path d="M8 4.29395V6.51395" stroke="#7F92A0" stroke-miterlimit="10" stroke-linecap="round"/>
<path d="M8.01327 1.33301C5.55993 1.33301 3.57327 3.31967 3.57327 5.77301V7.17301C3.57327 7.62634 3.3866 8.30634 3.15327 8.69301L2.3066 10.1063C1.7866 10.9797 2.1466 11.953 3.1066 12.273C6.29327 13.333 9.73993 13.333 12.9266 12.273C13.8266 11.973 14.2133 10.9197 13.7266 10.1063L12.8799 8.69301C12.6466 8.30634 12.4599 7.61967 12.4599 7.17301L12.4599 5.77301C12.4533 3.33301 10.4533 1.33301 8.01327 1.33301Z" stroke="#7F92A0" stroke-miterlimit="10" stroke-linecap="round"/>
<path d="M10.22 12.5469C10.22 13.7669 9.22003 14.7669 8.00003 14.7669C7.39336 14.7669 6.83336 14.5135 6.43336 14.1135C6.03336 13.7135 5.78003 13.1535 5.78003 12.5469" stroke="#7F92A0" stroke-miterlimit="10"/>
</svg>
