<svg width="25" height="24" viewBox="0 0 25 24" fill="none" xmlns="http://www.w3.org/2000/svg">
<g clip-path="url(#clip0_117_3507)">
<path d="M5.50003 13.1803V15.9903C5.50003 16.7203 5.90003 17.4003 6.54003 17.7503L11.54 20.4803C12.14 20.8103 12.86 20.8103 13.46 20.4803L18.46 17.7503C19.1 17.4003 19.5 16.7203 19.5 15.9903V13.1803L13.46 16.4803C12.86 16.8103 12.14 16.8103 11.54 16.4803L5.50003 13.1803ZM11.54 3.52027L3.11003 8.12027C2.42003 8.50027 2.42003 9.50027 3.11003 9.88027L11.54 14.4803C12.14 14.8103 12.86 14.8103 13.46 14.4803L21.5 10.0903V16.0003C21.5 16.5503 21.95 17.0003 22.5 17.0003C23.05 17.0003 23.5 16.5503 23.5 16.0003V9.59027C23.5 9.22027 23.3 8.89027 22.98 8.71027L13.46 3.52027C12.86 3.20027 12.14 3.20027 11.54 3.52027Z" fill="#FD9644"/>
</g>
<defs>
<clipPath id="clip0_117_3507">
<rect x="0.5" width="24" height="24" rx="6" fill="white"/>
</clipPath>
</defs>
</svg>
