<svg width="16" height="17" viewBox="0 0 16 17" fill="none" xmlns="http://www.w3.org/2000/svg">
<path d="M14.222 8.49957C14.222 9.03668 13.7145 9.49956 13.582 9.99556C13.4451 10.5082 13.6487 11.1625 13.3891 11.6113C13.1258 12.0667 12.4547 12.2156 12.0854 12.5851C11.716 12.9547 11.5667 13.6256 11.1109 13.8889C10.662 14.1487 10.0078 13.9449 9.49514 14.0818C8.99981 14.2142 8.53692 14.7218 7.99981 14.7218C7.4627 14.7218 6.99981 14.2142 6.50381 14.0818C5.99114 13.9449 5.33692 14.1485 4.88803 13.8889C4.4327 13.6256 4.28381 12.9545 3.91425 12.5851C3.5447 12.2158 2.87381 12.0665 2.61048 11.6107C2.3507 11.1618 2.55448 10.5076 2.41759 9.9949C2.28514 9.49957 1.77759 9.03668 1.77759 8.49957C1.77759 7.96245 2.28514 7.49957 2.41759 7.00357C2.55448 6.4909 2.35092 5.83668 2.61048 5.38779C2.87381 4.93245 3.54381 4.78357 3.91425 4.41401C4.2847 4.04445 4.43292 3.37357 4.8887 3.11023C5.33759 2.85045 5.99181 3.05423 6.50448 2.91734C6.99981 2.7849 7.4627 2.27734 7.99981 2.27734C8.53692 2.27734 8.99981 2.7849 9.49581 2.91734C10.0085 3.05423 10.6627 2.85068 11.1116 3.11023C11.5669 3.37357 11.7158 4.04357 12.0854 4.41401C12.4549 4.78445 13.1258 4.93268 13.3891 5.38845C13.6489 5.83734 13.4451 6.49157 13.582 7.00423C13.7145 7.49957 14.222 7.96245 14.222 8.49957Z" fill="url(#paint0_linear_117_3410)"/>
<path d="M7.99992 15.1663C7.60881 15.1663 7.31903 14.8463 7.03881 14.5366C6.89828 14.3456 6.71522 14.1899 6.50414 14.0819C6.25747 14.0671 6.01078 14.1107 5.78414 14.2092C5.39414 14.3337 4.99147 14.4623 4.66547 14.2737C4.33459 14.0823 4.24459 13.665 4.15747 13.2615C4.13067 13.0201 4.04739 12.7884 3.91436 12.5852C3.71106 12.4521 3.47925 12.3687 3.2377 12.3419C2.83436 12.2548 2.41725 12.1641 2.22592 11.8341C2.03725 11.5079 2.16592 11.1052 2.29036 10.7155C2.38897 10.4889 2.43261 10.2423 2.4177 9.99567C2.30975 9.78448 2.15409 9.60134 1.96303 9.46079C1.65325 9.18056 1.33325 8.89079 1.33325 8.49967C1.33325 8.10856 1.65325 7.81879 1.96303 7.53856C2.15403 7.39804 2.3097 7.21498 2.4177 7.0039C2.43267 6.7572 2.38903 6.51048 2.29036 6.2839C2.16592 5.89412 2.03725 5.49123 2.22592 5.16523C2.41725 4.83434 2.83459 4.74434 3.23814 4.65723C3.4795 4.63042 3.71117 4.54715 3.91436 4.41412C4.04792 4.21092 4.13167 3.97909 4.15881 3.73745C4.24592 3.33412 4.33659 2.91701 4.66659 2.72567C4.99303 2.53679 5.39592 2.6659 5.78525 2.79012C6.01184 2.88859 6.25842 2.9322 6.50503 2.91745C6.71622 2.80951 6.89936 2.65384 7.03992 2.46279C7.31903 2.15301 7.60881 1.83301 7.99992 1.83301C8.39103 1.83301 8.68081 2.15301 8.96103 2.46279C9.10156 2.65379 9.28461 2.80945 9.4957 2.91745C9.74236 2.93226 9.98906 2.88865 10.2157 2.79012C10.6057 2.66567 11.0084 2.53701 11.3344 2.72567C11.6653 2.91701 11.7553 3.33434 11.8424 3.7379C11.8692 3.97926 11.9524 4.21092 12.0855 4.41412C12.2887 4.54767 12.5205 4.63142 12.7621 4.65856C13.1655 4.74567 13.5826 4.83634 13.7739 5.16634C13.9626 5.49256 13.8339 5.89523 13.7095 6.28501C13.6109 6.51154 13.5672 6.75817 13.5821 7.00479C13.6901 7.21598 13.8458 7.39912 14.0368 7.53967C14.3466 7.81879 14.6666 8.10856 14.6666 8.49967C14.6666 8.89079 14.3466 9.18056 14.0368 9.46079C13.8458 9.60131 13.6901 9.78437 13.5821 9.99545C13.5672 10.2421 13.6108 10.4889 13.7095 10.7155C13.8339 11.1052 13.9626 11.5081 13.7739 11.8341C13.5826 12.165 13.1653 12.255 12.7617 12.3421C12.5203 12.3689 12.2887 12.4522 12.0855 12.5852C11.9523 12.7885 11.8689 13.0203 11.8421 13.2619C11.755 13.6652 11.6644 14.0823 11.3344 14.2737C11.0077 14.4626 10.6053 14.3337 10.2157 14.2092C9.98911 14.1108 9.74253 14.0671 9.49592 14.0819C9.28472 14.1898 9.10159 14.3455 8.96103 14.5366C8.68081 14.8463 8.39103 15.1663 7.99992 15.1663ZM6.39347 13.6246C6.46947 13.6241 6.54522 13.6335 6.61881 13.6526C6.91772 13.7751 7.17703 13.9778 7.36814 14.2383C7.58347 14.4761 7.80592 14.7219 7.99992 14.7219C8.19392 14.7219 8.41636 14.4761 8.6317 14.2383C8.82281 13.9778 9.0822 13.775 9.38125 13.6526C9.71056 13.6071 10.046 13.6533 10.3508 13.7859C10.6481 13.8808 10.9557 13.979 11.1119 13.889C11.2721 13.7963 11.341 13.4768 11.4077 13.1681C11.4439 12.8413 11.5697 12.5308 11.7713 12.271C11.9873 12.0546 12.3333 11.9799 12.6679 11.9077C12.9768 11.841 13.2964 11.7721 13.3895 11.6115C13.4784 11.4559 13.3813 11.1481 13.2861 10.8506C13.1533 10.5458 13.1071 10.2101 13.1528 9.88079C13.2754 9.58187 13.4781 9.32256 13.7386 9.13145C13.9764 8.91612 14.2221 8.69367 14.2221 8.49967C14.2221 8.30567 13.9764 8.08323 13.7386 7.8679C13.478 7.67679 13.2753 7.4174 13.1528 7.11834C13.1071 6.78904 13.1533 6.45354 13.2861 6.14879C13.3813 5.85123 13.4793 5.54345 13.3893 5.38767C13.2966 5.22745 12.977 5.15856 12.6684 5.0919C12.3415 5.05573 12.0311 4.9299 11.7713 4.72834C11.5548 4.51234 11.4801 4.16634 11.4079 3.83167C11.3413 3.52279 11.2724 3.20323 11.1117 3.11012C10.9561 3.02123 10.6488 3.11834 10.3508 3.21345C10.0459 3.3462 9.71039 3.39234 9.38103 3.34679C9.08211 3.2242 8.82281 3.02151 8.6317 2.76101C8.41636 2.52323 8.19392 2.27745 7.99992 2.27745C7.80592 2.27745 7.58347 2.52323 7.36814 2.76101C7.17703 3.02159 6.91764 3.22431 6.61859 3.34679C6.31903 3.42723 5.97814 3.31879 5.64903 3.21345C5.35147 3.11834 5.04436 3.01967 4.88881 3.11034C4.72859 3.20301 4.6597 3.52256 4.59303 3.83123C4.55686 4.15806 4.43103 4.46854 4.22947 4.72834C4.01347 4.94479 3.66747 5.01945 3.33281 5.09167C3.02392 5.15834 2.70436 5.22723 2.61125 5.3879C2.52236 5.54345 2.61947 5.85123 2.71459 6.14879C2.84747 6.45359 2.89361 6.7892 2.84792 7.11856C2.72534 7.41748 2.52264 7.67679 2.26214 7.8679C2.02347 8.08323 1.7777 8.30567 1.7777 8.49967C1.7777 8.69367 2.02347 8.91612 2.26125 9.13145C2.52184 9.32256 2.72456 9.58195 2.84703 9.88101C2.8927 10.2103 2.84656 10.5458 2.7137 10.8506C2.61859 11.1481 2.52059 11.4552 2.61059 11.6108C2.70325 11.771 3.02281 11.8399 3.33147 11.9066C3.65831 11.9427 3.96878 12.0686 4.22859 12.2701C4.44503 12.4861 4.5197 12.8321 4.59192 13.1668C4.65859 13.4757 4.72747 13.7952 4.88814 13.8883C5.0437 13.9772 5.35081 13.8801 5.64903 13.785C5.88781 13.6948 6.13872 13.6407 6.39347 13.6246Z" fill="url(#paint1_linear_117_3410)"/>
<path fill-rule="evenodd" clip-rule="evenodd" d="M7.25806 10.5836C7.16223 10.5836 7.07056 10.544 7.00494 10.4742L5.3164 8.67597C5.1848 8.53639 5.19209 8.3166 5.33168 8.18535C5.47161 8.0541 5.6914 8.06104 5.8223 8.20063L7.25459 9.72528L10.174 6.53014C10.3039 6.38813 10.5233 6.37875 10.665 6.50792C10.8063 6.63709 10.8161 6.85688 10.6869 6.9982L7.51431 10.4704C7.44938 10.5419 7.35702 10.5829 7.2605 10.5836H7.25806Z" fill="white"/>
<mask id="mask0_117_3410" style="mask-type:luminance" maskUnits="userSpaceOnUse" x="5" y="6" width="6" height="5">
<path fill-rule="evenodd" clip-rule="evenodd" d="M7.25806 10.5836C7.16223 10.5836 7.07056 10.544 7.00494 10.4742L5.3164 8.67597C5.1848 8.53639 5.19209 8.3166 5.33168 8.18535C5.47161 8.0541 5.6914 8.06104 5.8223 8.20063L7.25459 9.72528L10.174 6.53014C10.3039 6.38813 10.5233 6.37875 10.665 6.50792C10.8063 6.63709 10.8161 6.85688 10.6869 6.9982L7.51431 10.4704C7.44938 10.5419 7.35702 10.5829 7.2605 10.5836H7.25806Z" fill="white"/>
</mask>
<g mask="url(#mask0_117_3410)">
</g>
<defs>
<linearGradient id="paint0_linear_117_3410" x1="3.85763" y1="2.27734" x2="6.3996" y2="12.415" gradientUnits="userSpaceOnUse">
<stop stop-color="#1DA1F2"/>
<stop offset="1" stop-color="#003CC5"/>
</linearGradient>
<linearGradient id="paint1_linear_117_3410" x1="3.56186" y1="1.83301" x2="6.2854" y2="12.6948" gradientUnits="userSpaceOnUse">
<stop stop-color="#1DA1F2"/>
<stop offset="1" stop-color="#003CC5"/>
</linearGradient>
</defs>
</svg>
